<svg xmlns="http://www.w3.org/2000/svg" xmlns:xlink="http://www.w3.org/1999/xlink" viewBox="0 0 120 102.49"><defs><style>.cls-1{fill:none;}.cls-2{fill:#4284f3;}.cls-3{fill:#e94335;}.cls-4{fill:#34a753;}.cls-5{clip-path:url(#clip-path);}.cls-6{fill:#3572c8;}.cls-7{clip-path:url(#clip-path-2);}.cls-8{fill:#be312b;}.cls-9{clip-path:url(#clip-path-3);}.cls-10{clip-path:url(#clip-path-4);}.cls-11{fill:#29863f;}.cls-12{fill:#fabb05;}</style><clipPath id="clip-path"><path class="cls-1" d="M111.27,42.6l-9.46-.39a41,41,0,0,0-4.68-11.86l6.34-6.58a2.07,2.07,0,0,0,0-2.83L93.76,10.8a2.07,2.07,0,0,0-2.82-.17l-6.87,6A41.06,41.06,0,0,0,70.93,11l-.38-9.1A2.07,2.07,0,0,0,68.48,0h-14a2.08,2.08,0,0,0-2.07,1.93L52,11A41.1,41.1,0,0,0,39,16.6l-6.45-5.94a2.08,2.08,0,0,0-2.83.1l-9.91,9.92a2.08,2.08,0,0,0-.1,2.83l6.2,6.73A41.4,41.4,0,0,0,21.19,42l-8.87.37a2.08,2.08,0,0,0-1.93,2.07v14a2.08,2.08,0,0,0,1.93,2.07l8.93.37a41.13,41.13,0,0,0,4.89,11.88l-6,6.22a2.07,2.07,0,0,0,0,2.83l9.67,10.15a2.09,2.09,0,0,0,2.83.17l6.71-5.9A41.34,41.34,0,0,0,52,91.53l.37,9a2.08,2.08,0,0,0,2.07,1.93h14a2.08,2.08,0,0,0,2.07-1.93l.38-9a41.15,41.15,0,0,0,13.23-5.7l6.78,6.24a2.06,2.06,0,0,0,2.83-.1l9.92-9.91a2.08,2.08,0,0,0,.1-2.83L97.2,72.08a41.17,41.17,0,0,0,4.42-10.91l9.65-.4a2.08,2.08,0,0,0,1.93-2.08v-14A2.08,2.08,0,0,0,111.27,42.6ZM61.57,84.71A33.47,33.47,0,1,1,95,51.24,33.47,33.47,0,0,1,61.57,84.71Z"/></clipPath><clipPath id="clip-path-2"><path class="cls-1" d="M48.09,49.38H37.65a.82.82,0,0,0-.82.82V66A29.35,29.35,0,0,0,48.91,76.62V50.2A.82.82,0,0,0,48.09,49.38Z"/></clipPath><clipPath id="clip-path-3"><path class="cls-1" d="M66.69,41.82H56.26a.83.83,0,0,0-.83.83V78.82a29.32,29.32,0,0,0,12.09,0V42.65A.83.83,0,0,0,66.69,41.82Z"/></clipPath><clipPath id="clip-path-4"><path class="cls-1" d="M86.12,66V35.16a.82.82,0,0,0-.82-.82H74.86a.82.82,0,0,0-.82.82V76.62A29.41,29.41,0,0,0,86.12,66Z"/></clipPath></defs><g id="Layer_2" data-name="Layer 2"><g id="Layer_1-2" data-name="Layer 1"><g id="RGB_Digital_Version_logo" data-name="RGB Digital Version logo"><g id="Logo_5" data-name="Logo 5"><g id="Icon"><path class="cls-2" d="M111.27,42.6l-9.46-.39a41,41,0,0,0-4.68-11.86l6.34-6.58a2.07,2.07,0,0,0,0-2.83L93.76,10.8a2.07,2.07,0,0,0-2.82-.17l-6.87,6A41.06,41.06,0,0,0,70.93,11l-.38-9.1A2.07,2.07,0,0,0,68.48,0h-14a2.08,2.08,0,0,0-2.07,1.93L52,11A41.1,41.1,0,0,0,39,16.6l-6.45-5.94a2.08,2.08,0,0,0-2.83.1l-9.91,9.92a2.08,2.08,0,0,0-.1,2.83l6.2,6.73A41.4,41.4,0,0,0,21.19,42l-8.87.37a2.08,2.08,0,0,0-1.93,2.07v14a2.08,2.08,0,0,0,1.93,2.07l8.93.37a41.13,41.13,0,0,0,4.89,11.88l-6,6.22a2.07,2.07,0,0,0,0,2.83l9.67,10.15a2.09,2.09,0,0,0,2.83.17l6.71-5.9A41.34,41.34,0,0,0,52,91.53l.37,9a2.08,2.08,0,0,0,2.07,1.93h14a2.08,2.08,0,0,0,2.07-1.93l.38-9a41.15,41.15,0,0,0,13.23-5.7l6.78,6.24a2.06,2.06,0,0,0,2.83-.1l9.92-9.91a2.08,2.08,0,0,0,.1-2.83L97.2,72.08a41.17,41.17,0,0,0,4.42-10.91l9.65-.4a2.08,2.08,0,0,0,1.93-2.08v-14A2.08,2.08,0,0,0,111.27,42.6ZM61.57,84.71A33.47,33.47,0,1,1,95,51.24,33.47,33.47,0,0,1,61.57,84.71Z"/><path class="cls-3" d="M48.09,49.38H37.65a.82.82,0,0,0-.82.82V66A29.35,29.35,0,0,0,48.91,76.62V50.2A.82.82,0,0,0,48.09,49.38Z"/><path class="cls-2" d="M66.69,41.82H56.26a.83.83,0,0,0-.83.83V78.82a29.32,29.32,0,0,0,12.09,0V42.65A.83.83,0,0,0,66.69,41.82Z"/><path class="cls-4" d="M86.12,66V35.16a.82.82,0,0,0-.82-.82H74.86a.82.82,0,0,0-.82.82V76.62A29.41,29.41,0,0,0,86.12,66Z"/><g class="cls-5"><path class="cls-6" d="M2.55,62.09C48.67,73.48,88.85,59.49,115,19.94h0C93.56,75.88,31.58,75.88,2.55,62.09Z"/></g><g class="cls-7"><path class="cls-8" d="M2.55,62.09C48.67,73.48,88.85,59.49,115,19.94h0C93.56,75.88,31.58,75.88,2.55,62.09Z"/></g><g class="cls-9"><path class="cls-6" d="M2.55,62.09C48.67,73.48,88.85,59.49,115,19.94h0C93.56,75.88,31.58,75.88,2.55,62.09Z"/></g><g class="cls-10"><path class="cls-11" d="M2.55,62.09C48.67,73.48,88.85,59.49,115,19.94h0C93.56,75.88,31.58,75.88,2.55,62.09Z"/></g><path class="cls-12" d="M0,61.11c47.58,8.22,86.69-2.68,112.85-42.23l-5.5-.78L120,7.88l-1.26,16.34L115,19.9C84.49,78.27,28.09,71.52,0,61.11Z"/></g></g></g></g></g></svg>